<?xml version="1.0" standalone="no"?>
<!DOCTYPE svg PUBLIC "-//W3C//DTD SVG 20010904//EN"
 "http://www.w3.org/TR/2001/REC-SVG-20010904/DTD/svg10.dtd">
<svg version="1.0" xmlns="http://www.w3.org/2000/svg"
 width="384.000000pt" height="131.000000pt" viewBox="0 0 384.000000 131.000000"
 preserveAspectRatio="xMidYMid meet">

<g transform="translate(0.000000,131.000000) scale(0.100000,-0.100000)"
fill="#000000" stroke="none">
<path d="M750 1301 c-113 -34 -201 -135 -217 -246 l-6 -45 33 0 c105 0 224
128 232 249 3 47 -3 53 -42 42z"/>
<path d="M250 976 c-241 -65 -320 -378 -175 -693 75 -162 188 -283 265 -283
11 0 51 11 88 23 101 36 131 39 192 21 30 -8 77 -22 104 -30 72 -20 118 -5
181 59 52 54 120 161 148 233 l16 41 -49 32 c-60 39 -105 106 -121 178 -20
101 8 188 85 264 l47 47 -26 30 c-38 46 -123 83 -201 90 -56 4 -80 0 -164 -28
l-98 -33 -90 32 c-97 33 -132 36 -202 17z"/>
<path d="M3180 605 l0 -385 45 0 45 0 0 385 0 385 -45 0 -45 0 0 -385z"/>
<path d="M1541 928 c-4 -13 -58 -170 -119 -349 -62 -179 -114 -334 -118 -343
-5 -13 2 -16 43 -16 l49 0 37 115 38 115 132 0 133 0 37 -115 38 -115 50 0
c27 0 49 1 49 3 0 1 -56 164 -124 362 l-123 360 -57 3 c-51 3 -57 1 -65 -20z
m169 -400 c0 -5 -47 -8 -105 -8 -70 0 -105 4 -105 11 0 9 55 190 97 319 4 12
112 -297 113 -322z"/>
<path d="M2189 745 c-25 -8 -61 -31 -82 -51 l-37 -37 0 41 0 42 -46 0 -47 0 7
-52 c3 -29 6 -194 6 -365 l0 -313 45 0 45 0 0 141 0 141 29 -29 c30 -31 89
-53 137 -53 82 0 165 55 206 134 26 51 35 165 18 235 -31 132 -156 205 -281
166z m121 -87 c53 -36 75 -90 74 -178 0 -84 -15 -122 -63 -163 -69 -57 -175
-37 -219 42 -17 30 -22 55 -22 114 0 42 5 88 11 104 12 33 56 82 84 93 39 17
101 11 135 -12z"/>
<path d="M2800 751 c-46 -15 -88 -40 -108 -66 l-20 -25 -6 40 c-6 39 -7 40
-46 40 l-40 0 0 -365 0 -365 50 0 50 0 0 139 0 139 28 -28 c30 -29 86 -50 136
-50 85 0 169 57 207 142 28 62 33 187 10 252 -15 44 -72 111 -111 131 -34 18
-118 27 -150 16z m100 -90 c106 -56 111 -288 8 -351 -52 -31 -90 -35 -142 -12
-68 31 -86 67 -86 175 0 105 16 147 69 183 44 29 102 32 151 5z"/>
<path d="M3564 751 c-122 -31 -192 -148 -182 -302 7 -121 70 -200 183 -230 43
-12 145 -5 207 13 34 10 37 14 31 37 -9 39 -12 41 -41 30 -15 -6 -61 -12 -102
-12 -63 -2 -81 2 -113 22 -42 26 -77 85 -77 131 l0 30 186 0 187 0 -7 63 c-9
88 -47 161 -99 191 -46 27 -125 39 -173 27z m117 -77 c32 -16 68 -81 69 -121
0 -23 -1 -23 -140 -23 -158 0 -157 -1 -119 76 36 76 119 105 190 68z"/>
</g>
</svg>
